<svg xmlns="http://www.w3.org/2000/svg" xmlns:xlink="http://www.w3.org/1999/xlink" viewBox="0 0 284.98 368.18"><defs><style>.a,.d{fill:none;}.b,.c{fill:#514e64;}.c,.d,.e{stroke:#000;stroke-miterlimit:10;stroke-width:3px;}.e{fill:#d0f05c;}.f{clip-path:url(#a);}.g{fill:#2d2a3a;}</style><clipPath id="a" transform="translate(-105.91 -65.91)"><path class="a" d="M353.08,367c-17.05,16.77-53.57,33.32-106.4,31.53-58.51-2-80.87-16.52-100.82-28.83L147.49,150a.56.56,0,0,1,.95-.41c17.88,17.07,54.17,30.78,98.83,30.2,66.17-.86,94-25.2,103-34.16.31-.31.84.05.85.5Z"/></clipPath></defs><polygon class="b" points="41.57 86.16 46.8 50.62 235.92 47.91 243.1 53.77 247.17 78.71 235.4 99.41 125.81 134.36 50.7 94.71 41.57 86.16"/><path class="c" d="M22,68.74" transform="translate(-105.91 -65.91)"/><polygon class="b" points="39.96 306.74 47.22 288.35 247.11 294.22 247.81 306.74 240.18 326.91 199.18 353.62 132.66 356.31 70.05 345.61 44.51 320.99 39.96 306.74"/><path class="c" d="M346.89,104.79c0,23-55.18,37.39-94.12,37.39-56.27,0-98.45-15.48-98.45-39.2,0-20.64,46.44-35.57,98.45-35.57C301.3,67.41,346.89,84.15,346.89,104.79Z" transform="translate(-105.91 -65.91)"/><path class="c" d="M346.89,117.24c-2.42,23.38-55.18,37.38-94.12,37.38-56.27,0-98.45-18.55-98.45-39.2,0-20,46.12-37.29,98.13-37.29C301,78.13,349.07,96.14,346.89,117.24Z" transform="translate(-105.91 -65.91)"/><path class="c" d="M154.32,115.11a252.43,252.43,0,0,0-7.71,61.6l-.1,193" transform="translate(-105.91 -65.91)"/><path class="c" d="M346.9,114.52s6.07,21.38,6.89,28.76a244.1,244.1,0,0,1,1.55,27.44V368.18" transform="translate(-105.91 -65.91)"/><path class="b" d="M251.46,419.53c48.07,0,80.3-10.43,94.92-31,0,36.94-60.88,44-100.19,44s-93.59-13-93.63-44.55h0C167,408.6,203.14,419.53,251.46,419.53Z" transform="translate(-105.91 -65.91)"/><path class="d" d="M346.38,388.55c-14.62,20.55-46.85,31-94.92,31-48.32,0-84.49-10.93-98.89-31.49a37.12,37.12,0,0,1-6.06-14,10.52,10.52,0,0,1,0-4.4" transform="translate(-105.91 -65.91)"/><path class="d" d="M353.29,368.18a10.38,10.38,0,0,1,0,5.9,46.85,46.85,0,0,1-6.91,14.46" transform="translate(-105.91 -65.91)"/><path class="d" d="M346.38,388.5v0h0c0,36.94-60.88,44-100.19,44s-93.59-13-93.63-44.55" transform="translate(-105.91 -65.91)"/><path class="e" d="M353.72,367c-17.05,16.77-53.57,33.32-106.39,31.53-58.51-2-80.88-16.52-100.82-28.83L148.13,150a.56.56,0,0,1,1-.41c17.88,17.07,54.17,30.78,98.84,30.2,66.16-.86,94-25.2,103-34.16.31-.31.85.05.85.5Z" transform="translate(-105.91 -65.91)"/><ellipse class="d" cx="103.78" cy="44.21" rx="40.25" ry="11.4"/><ellipse class="d" cx="112.42" cy="42.44" rx="12.67" ry="5.29"/><ellipse class="d" cx="85.48" cy="42.83" rx="8.09" ry="3.83"/><g class="f"><path class="g" d="M388.1,238.8a.12.12,0,0,1,.08,0,.12.12,0,0,1,.13.1l.05.37c0,.11,0,.17-.16.17a.32.32,0,0,0-.37.31v0a.15.15,0,0,0,.15.15h.26a.15.15,0,0,0,.15-.14.42.42,0,0,1,.37-.4.13.13,0,0,0,.1-.1l.07-.33a.47.47,0,0,1,.09-.22l.59-.85a.13.13,0,0,0-.19-.17l-.41.42-.05,0a.08.08,0,0,1-.09-.07.76.76,0,0,0-.24-.49.22.22,0,0,1,.24-.36l.72.32a.19.19,0,0,1,.12.19l-.09,1.72h0a0,0,0,0,1-.05,0c-.45,0-.7.06-.76.23a.24.24,0,0,1-.13.13l-.2.07a.22.22,0,0,0-.12.11.23.23,0,0,0,.09.31l.67.36c.08,0,.09.1,0,.17-.27.33.06.49-.07.81a.08.08,0,0,1-.07.05.07.07,0,0,1-.09-.06l0-.15,0-.06a.14.14,0,0,0-.18,0l-.53.42a.14.14,0,0,0,0,.21l.18.23a.11.11,0,0,1,0,.15.61.61,0,0,0-.2.54v0a.13.13,0,0,1-.13.14h-.32a.16.16,0,0,0-.14.08l-.34.59a.16.16,0,0,0,0,.2l.05.05h0a.12.12,0,0,0,.17,0l.38-.61a.17.17,0,0,1,.19-.08.18.18,0,0,1,.15.22l-.31,1.56s0,0,0,0a.05.05,0,0,1-.08,0l-.19-.18a.15.15,0,0,0-.24,0,.26.26,0,0,0,0,.32.22.22,0,0,0,.16.12h.11l0,0a.08.08,0,0,1,0,.13.57.57,0,0,0,0,.74.06.06,0,0,1,0,.06.07.07,0,0,1-.08,0l-.2-.08q-.21-.08-.18.15a.46.46,0,0,0,.3.34.17.17,0,0,0,.17,0,.19.19,0,0,0,.11-.19c0-.11,0-.13.12,0l.09.09a.16.16,0,0,1,0,.23l-.17.26c-.05.09,0,.16,0,.21a.85.85,0,0,1,.38.66.32.32,0,0,1-.06.23.59.59,0,0,1-.46.26.1.1,0,0,0-.1.12v.08a.11.11,0,0,1,0,.05.1.1,0,0,1-.12,0l-.22-.1c-.1-.05-.14,0-.13.09.07.6-.18,1.78.22,2.19a.15.15,0,0,1,0,.23,1.37,1.37,0,0,0,.12,1.69.18.18,0,0,1,0,.22,2.94,2.94,0,0,0-.37,1.77.09.09,0,0,0,0,.07.14.14,0,0,0,.18,0l.38-.37a.11.11,0,0,1,.13,0,.11.11,0,0,1,0,.15c-.31.56.39.71.6,1.07.08.14,0,.21-.12.19h-.16a.16.16,0,0,0-.16.16V257c0,.18-.06.21-.19.09a.63.63,0,0,0-.4-.17.24.24,0,0,1-.11-.06.18.18,0,0,1,0-.26.53.53,0,0,0,.1-.78.1.1,0,0,1,0-.07s.05-.06.09,0l.3.07a.08.08,0,0,0,.09,0,.09.09,0,0,0,0-.13l-.42-.4a.11.11,0,0,0-.07,0,.12.12,0,0,0-.14.1,13.88,13.88,0,0,0-.1,3.47.12.12,0,0,0,.13.12h.09a.09.09,0,0,1,.11.05.11.11,0,0,1,0,.15l-.24.15a.2.2,0,0,0-.1.2l.13,1.38a.29.29,0,0,1-.06.22l-.05.06s0,0,0,0a.14.14,0,0,0,.08.18.48.48,0,0,1,.32.68.29.29,0,0,1-.18.19.31.31,0,0,0-.19.44.09.09,0,0,0,.1.05l.16,0h0a.08.08,0,0,1,.08.08.38.38,0,0,1-.21.36.19.19,0,0,0-.1.18l.66,92a.26.26,0,0,1-.12.23q-5.56,3.47-11.24,6.77a152.71,152.71,0,0,1-48.35,17.81c-.24,0-.6-.06-.84.18a.33.33,0,0,1-.25.1h-.75a.33.33,0,0,0-.21.07,1,1,0,0,1-.77.17.17.17,0,0,1-.15-.12c-1.46-3.58-2.94-7.17-4.42-10.74a2,2,0,0,1,0-.73.45.45,0,0,0,0-.23q-3.6-8.65-5.52-13.57c-.56-1.46-1.24-2.44-1-3.82a.37.37,0,0,0-.05-.23c-.38-.55-1.53-1.53-1.65-2.11a29.17,29.17,0,0,0-4-9.89,9.18,9.18,0,0,1-1.29-6.43.31.31,0,0,1,.11-.2,3.71,3.71,0,0,0,1.38-2.46,1.85,1.85,0,0,1,1.38-1.68c.68-.25,1.88-.75,3.61-1.48,2.51-1.07,4.14-2.73,2.91-5.65a.4.4,0,0,1,0-.24,9.79,9.79,0,0,0,.6-2.35,3,3,0,0,0-1.35-2.42c-1.22-.85-.31-3.62-.86-5.26-.37-1.12-1-2-.53-3.33a.32.32,0,0,0,0-.27,1.56,1.56,0,0,1,.44-2.55.26.26,0,0,0,.13-.23,2.75,2.75,0,0,1,.53-2.2c.87-.94,1.74-1.87,2.61-2.77a.62.62,0,0,1,.72-.12l.82.38a.42.42,0,0,0,.57-.1.55.55,0,0,0-.14-.76,13.87,13.87,0,0,1-4.23-4.63c-.2-.35-.88-.5-1.17-.84a1.51,1.51,0,0,1-.36-1.41,3.39,3.39,0,0,0-1.61-3.75c-1-.64-.63-1.56-.74-2.51a.36.36,0,0,0-.11-.22q-3.68-3.87-7.44-7.66a10.79,10.79,0,0,1-2.09-2.59c-1-2.27-.05-4,1.61-5.7q3.9-4,7.83-7.87a1.14,1.14,0,0,0,.32-.6c.16-.8.36-3.23,1.18-3.59,1-.45,1-.95,1.22-1.92a.39.39,0,0,1,.13-.2,9.27,9.27,0,0,0,2.63-3.55,28,28,0,0,1,3.08-5.22,2.11,2.11,0,0,0,.36-1.2c0-2.1.06-4.23.23-6.33a.35.35,0,0,1,.1-.22,37.81,37.81,0,0,0,5.27-6.56c1.11-1.73,1.12-3.81.75-6.1a.35.35,0,0,0-.1-.2c-2.34-2.43-1.54-5.63-1.55-8.63a1.13,1.13,0,0,1,.24-.71l4.9-6.25a1.48,1.48,0,0,0,.31-1c-.14-1.8-.22-3.7-.26-5.7,0-1.83-1.82-1.55-2-3.07s-1.39-2.95-2.37-3.93c-1.66-1.67-3.33-3.32-5-5-.71-.7-.33-2-1.11-2.36-.55-.24-.91-.3-1.11-.93a70.19,70.19,0,0,0-3-7.85,2.93,2.93,0,0,1,.59-3.66,1.23,1.23,0,0,0,.49-.89,2.38,2.38,0,0,1,2.32-2.73h7.2a.24.24,0,0,0,.16-.07q.24-.25-.06-.39a11.79,11.79,0,0,1-1.15-.63.33.33,0,0,1-.14-.17,6.2,6.2,0,0,1,0-1.81c0-2.7,0-5.42,0-8.14a.39.39,0,0,1,.07-.23c1.28-1.67,2.15-3.72,1.28-5.65-.36-.8-1.06-1.21-1.19-2.31,0-.09,0-.13.13-.12a38.13,38.13,0,0,0,6.5,0,3.43,3.43,0,0,0,1.3-.39,24.78,24.78,0,0,1,5.55-2.43c4.25-1.11,7.85-2.85,12.36-2.93a.4.4,0,0,0,.24-.07,31.62,31.62,0,0,1,11-4.07,11.58,11.58,0,0,0,3.92-1.93,66.17,66.17,0,0,1,6.42-3.33,2,2,0,0,0,.75-.63c2-2.74,4.35-4.12,7.13-6.3a14.74,14.74,0,0,1,7.7-3c.09,0,.13,0,.13.12a89.52,89.52,0,0,0,.26,9.62,78.15,78.15,0,0,1,1.07,9.11.14.14,0,0,1-.12.15,1.21,1.21,0,0,0-1,.55,6,6,0,0,1-2.34,1.93.2.2,0,0,0-.12.18c0,1.31,0,2.61,0,3.92,0,.26.22.49,0,.81a.39.39,0,0,0-.07.23q.09,6.62.09,13.22a1.47,1.47,0,0,1,0,.23.3.3,0,0,0,.09.28.24.24,0,0,1,.07.18v5.22a.3.3,0,0,0,.14.26l.62.39a.15.15,0,0,1,.07.14l0,.12a.12.12,0,0,0,.09.15c.3.09.38.29.27.61a.13.13,0,0,1-.21.08.19.19,0,0,0-.17,0,.11.11,0,0,0-.06.11,1,1,0,0,1-.23.75.05.05,0,0,0,0,0,.11.11,0,0,0,.08.14l.42.13a.23.23,0,0,1,.17.18,1.7,1.7,0,0,0,.4.68.24.24,0,0,1,.06.21c0,.05,0,.06-.06.05l-.26-.08a.2.2,0,0,0-.23.06.19.19,0,0,0,0,.28.11.11,0,0,0,.13,0l.14,0h0a.1.1,0,0,1,.12.07l.12.37a.13.13,0,0,0,.1.1.14.14,0,0,0,.17-.1.64.64,0,0,1,.74-.52.13.13,0,0,1,.13.12c.06.26.21.35.45.26a.57.57,0,0,1,.18,0,.47.47,0,0,1,.46.48l0,2.2a.08.08,0,0,1-.05.07.08.08,0,0,1-.1,0l-.08-.24a.23.23,0,0,0-.45,0c0,.17-.18.24-.43.21s-.36.11-.34.42a.17.17,0,0,1-.18.19l-.22,0s-.06,0,0-.06l0-.15a.12.12,0,0,0,0-.1.12.12,0,0,0-.16,0l-.42.36q-.33.27.09.12l.08,0a.09.09,0,0,1,.07,0,.1.1,0,0,1,0,.13,6.58,6.58,0,0,1-.78,1.14.56.56,0,0,0,.05.8c.08.1.06.15-.07.15h-.3l-.07,0a.17.17,0,0,1-.08-.22.5.5,0,0,0-.16-.7c-.07,0-.11,0-.13.05a1.24,1.24,0,0,0,.19,1.07.22.22,0,0,1,0,.22l-.2.38a.14.14,0,0,0,.09.21l.17.06a.16.16,0,0,0,.24-.1.84.84,0,0,1,.36-.39q.17-.09.12.09a.73.73,0,0,1-.5.58s-.06,0-.06.08a.1.1,0,0,0,.08.1,1.31,1.31,0,0,0,1-.41s.08,0,.12,0a.08.08,0,0,1,0,.14l-.48.4a.21.21,0,0,0,0,.06.15.15,0,0,0,.07.19.39.39,0,0,1,.26.47.22.22,0,0,0,.08.2l1.22,1a.19.19,0,0,1,.06.2.2.2,0,0,1-.23.1.62.62,0,0,1-.4-.47.16.16,0,0,0-.17-.14h-.12a.11.11,0,0,1-.11-.11c0-.13-.07-.2-.2-.2s-.22.06-.1.2L389,189a.17.17,0,0,1,0,.21l-.17.22a.13.13,0,0,0,0,.19.12.12,0,0,0,.18,0l.51-.45a.09.09,0,0,1,.06,0,.13.13,0,0,1,.16.1,3.3,3.3,0,0,1,.17,1.4c-.26,1.56.8,2.51.81,3.56a51.41,51.41,0,0,1-.51,10.52,2.29,2.29,0,0,0,.61,1.85s0,.06,0,.08a5,5,0,0,0-2.31,4.67c0,2.95,0,5.93.26,8.88.08.95.16,1.91.23,2.87.09,1.24.36,2.78.41,4.19.07,1.77.45,3.44.5,5.15a1.76,1.76,0,0,1-.37,1.15.15.15,0,0,1-.2,0l-.6-.29c-.12-.06-.11-.09,0-.09h.49a.33.33,0,0,0,.23-.09,1.07,1.07,0,0,0,.31-.66.24.24,0,0,0-.12-.26c-.08,0-.12,0-.12.08v.19c0,.13-.07.18-.19.13a.36.36,0,0,1-.26-.49s0,0,0-.05a.09.09,0,0,0-.1,0,1.87,1.87,0,0,1-.55.18.11.11,0,0,1-.14-.09.12.12,0,0,1,.09-.14.68.68,0,0,0,.55-.61c0-.14,0-.16-.14-.09l-1.21.86h0l-.05-.06a.05.05,0,0,1,0-.08l.84-1a.12.12,0,0,0,0-.14.15.15,0,0,0-.19-.06,2.47,2.47,0,0,0-.78.7c-.21.27-.14.59-.47.87a.2.2,0,0,0-.06.18c0,.12.1.13.24,0a.25.25,0,0,0,.08-.14.24.24,0,0,1,.06-.09h0a.11.11,0,0,1,.16,0l.38.55a.5.5,0,0,1,.09.24.68.68,0,0,0,.52.63c.1,0,.11.07.05.15a.2.2,0,0,1-.12.08.24.24,0,0,1-.22-.06c-.46-.41-.12-1.13-1-1.13a.16.16,0,0,0-.18.14.16.16,0,0,0,.14.19.3.3,0,0,1,.24.26h0a.15.15,0,0,1-.15.17c-.15,0-.24.08-.26.19a2.48,2.48,0,0,0,.07,1,.18.18,0,0,0,.14.14l.93.28a.13.13,0,0,1,.1.19c-.35,1-1.46,1.76-1,3a.27.27,0,0,1,0,.23l-.09.2a.14.14,0,0,0,0,.09.11.11,0,0,0,.14,0l.45-.25q.15-.07.15.09v.26q-.36-.08-.42.12a.19.19,0,0,0,.09.23.2.2,0,0,0,.28-.07.49.49,0,0,0,.05-.28Zm-1.44-63.54h0a.12.12,0,0,0,.08.16.3.3,0,0,0,.26,0,.16.16,0,0,0,.09-.07.22.22,0,0,0,0-.14.12.12,0,0,0-.05-.07C386.87,175,386.74,175.07,386.66,175.26Zm.17.39c-.09-.05-.17,0-.23.1a0,0,0,0,0,0,0,.13.13,0,0,0,.09.15l.14,0a.08.08,0,0,0,.1,0A.18.18,0,0,0,386.83,175.65Zm.48.28c-.05-.11-.15-.17-.22-.14s-.08.15,0,.26.15.16.22.13S387.36,176,387.31,175.93Zm0,2a.2.2,0,0,0,.17-.09.17.17,0,0,0-.08-.22l-.34-.17h0a.09.09,0,0,0-.09.09A.39.39,0,0,0,387.3,178Zm.56,1.5a.09.09,0,0,0-.08-.09h-.16a.18.18,0,0,0-.19.17l-.08.45a.1.1,0,0,0,0,.08.08.08,0,0,0,.12,0l.34-.55A.06.06,0,0,0,387.86,179.46Zm2.16,1.47a.22.22,0,0,0-.18,0,.23.23,0,0,0-.07.13.49.49,0,0,0,.06.29.2.2,0,0,0,.15.09.18.18,0,0,0,.18-.17.58.58,0,0,0-.09-.33A.09.09,0,0,0,390,180.93Zm-2.38,1.8a.2.2,0,0,0-.11-.11.18.18,0,0,0-.2.11l-.15.51a.06.06,0,0,0,0,.06.1.1,0,0,0,.13.07.36.36,0,0,0,.24-.25Q387.73,183.06,387.64,182.73Zm.76,7.1s-.06,0-.07-.05a.14.14,0,0,1,.07-.14c.31-.18.36-.43.15-.76-.06-.09-.12-.09-.19,0a.39.39,0,0,0-.08.28.17.17,0,0,1-.1.17l-.73.35a.17.17,0,0,0-.1.2.7.7,0,0,0,.48.55h0a.18.18,0,0,0,.2-.07.11.11,0,0,0-.06-.16.24.24,0,0,1-.17-.31s0,0,.05-.07a.1.1,0,0,1,.14,0c.25.41.48.57.68.46,0,0,.05,0,.07,0l.07.12h0a.1.1,0,0,1,0,.14l-.22.11a.11.11,0,0,0-.06.1.11.11,0,0,0,.11.09.9.9,0,0,0,.58-.25.37.37,0,0,0,.13-.32c0-.15-.13-.23-.33-.25a.09.09,0,0,1-.08-.06l-.13-.37,0,0a.07.07,0,0,0-.09,0A.48.48,0,0,1,388.4,189.83Zm1.31.21a.13.13,0,0,0-.15.12l0,.38s0,0,0,.06a.12.12,0,0,0,.15.06c.26-.12.31-.3.14-.56A.1.1,0,0,0,389.71,190ZM388,205h-.09a.13.13,0,0,0-.12.08.12.12,0,0,0,.08.16c.13,0,.2,0,.23-.12S388.1,205,388,205Zm-.94,24.1L387,229a.08.08,0,0,0-.1,0,.09.09,0,0,0-.06.12l.26.57c.07.14.14.14.22,0s.22-.19.35,0a.14.14,0,0,0,.2.06.17.17,0,0,0,.09-.26.49.49,0,0,0-.66-.24C387.19,229.23,387.12,229.21,387.08,229.12Zm1.46.59a.37.37,0,0,0-.14.29.11.11,0,0,0,.08.1.12.12,0,0,0,.14-.07l.16-.55s0-.07,0-.06h-.08a.05.05,0,0,0-.06.06v.12A.16.16,0,0,1,388.54,229.71Zm-1.56.78a8,8,0,0,1-.08,1.1.06.06,0,0,0,0,.07.08.08,0,0,0,.12,0,1.11,1.11,0,0,0,.38-1,.17.17,0,0,1,.11-.21.38.38,0,0,0,.2-.34.23.23,0,0,0-.42-.11.28.28,0,0,1-.2.15.15.15,0,0,0-.15.16s0,.07,0,.1A.2.2,0,0,1,387,230.49Zm2.09-.26h0a.15.15,0,0,0-.06.19l.06.1.05.05a.11.11,0,0,0,.17-.05.14.14,0,0,0,0-.2C389.23,230.25,389.18,230.21,389.07,230.23Zm-2,4.87a.15.15,0,0,0-.14.15l0,1a.21.21,0,0,0,.07.14.18.18,0,0,0,.24-.05.88.88,0,0,0-.08-1.16A.14.14,0,0,0,387.07,235.1Zm1.33,5.37a.14.14,0,0,0-.13-.08.87.87,0,0,1-.94-.9c0-.09,0-.13-.13-.12s-.13.08-.14.2a1.13,1.13,0,0,0,.24.71.15.15,0,0,1,0,.2,1.54,1.54,0,0,0-.21,1.19,0,0,0,0,0,0,0,.11.11,0,0,0,.14,0l.15-.1a.11.11,0,0,0,.06-.13,1,1,0,0,1,.14-.7.38.38,0,0,1,.7.08c.06.22.23.3.5.22A.25.25,0,0,0,389,241a.23.23,0,0,0-.14-.3l-.32-.1A.2.2,0,0,1,388.4,240.47Zm-.44.9a.13.13,0,0,0-.12.12v.13l0,0a.08.08,0,0,0,.12,0c.13-.08.15-.17.07-.28A.13.13,0,0,0,388,241.37Zm-.49,3.07v0a.12.12,0,0,0-.15-.06c-.19.07-.26.19-.2.35a.13.13,0,0,0,.07.09.18.18,0,0,0,.12,0l.08,0A.54.54,0,0,0,387.47,244.44Zm-.27,17.06a.21.21,0,0,0-.2.17.16.16,0,0,0,.16.18.16.16,0,0,0,.14-.05.15.15,0,0,0,0-.13c0-.11,0-.16-.14-.17Z" transform="translate(-105.91 -65.91)"/><path class="g" d="M390.17,152.89a.29.29,0,0,1,.14.24l0,.81c0,.29-.12.41-.41.36a1.6,1.6,0,0,1-1.24-1,.57.57,0,0,1,0-.14.47.47,0,0,1,.43-.5A1.82,1.82,0,0,1,390.17,152.89Z" transform="translate(-105.91 -65.91)"/><path class="g" d="M389.22,154.41a.06.06,0,0,1,.06.06v.25a.1.1,0,0,1-.09.1.08.08,0,0,1-.09-.08.36.36,0,0,1,.07-.3A.05.05,0,0,1,389.22,154.41Z" transform="translate(-105.91 -65.91)"/><path class="g" d="M389.36,158.65l-1,.48a.24.24,0,0,1-.3-.09.22.22,0,0,1,.1-.29.15.15,0,0,0,.08-.16.12.12,0,0,0-.08-.11l-.2-.1a.09.09,0,0,1-.06-.08.12.12,0,0,1,.09-.14.38.38,0,0,0,.33-.31.08.08,0,0,1,.08-.07h.1a.12.12,0,0,1,.1.07.11.11,0,0,1-.06.15l-.12,0c-.06,0-.09.05-.07.11l.09.3a.11.11,0,0,0,.07.08.14.14,0,0,0,.19-.06c.18-.37.06-1,.2-1.19s.14-.15.23-.12a.3.3,0,0,0,.21,0,.39.39,0,0,0,.26-.47.8.8,0,0,1,.21-.77c.08-.09.14-.08.17,0,.37,1.45.05,2.75.24,4a.49.49,0,0,1,0,.24,2.07,2.07,0,0,0-.05,1c0,.07,0,.11-.1.1a.42.42,0,0,1-.43-.54,1.09,1.09,0,0,1,.42-.67c.11-.09.1-.17,0-.22s-.18-.15-.13-.3,0,0,0,0a.18.18,0,0,0-.16-.18l-.37,0h0a.09.09,0,0,1-.06-.12l.16-.52C389.5,158.62,389.47,158.59,389.36,158.65Zm.27-1.25a.11.11,0,0,0,0,.13.32.32,0,0,0,.39.18.11.11,0,0,0,.07-.06.1.1,0,0,0-.05-.13l-.29-.12A.11.11,0,0,0,389.63,157.4Z" transform="translate(-105.91 -65.91)"/><path class="g" d="M322.9,171.34a.1.1,0,0,1-.08-.11l.11-.75h0a11.74,11.74,0,0,1,.83-3.6h.05a11.79,11.79,0,0,1-.25,3.69l-.11.75c0,.05-.06.09-.11.09Z" transform="translate(-105.91 -65.91)"/><path class="g" d="M389.74,169.41a.24.24,0,0,1-.09.15.64.64,0,0,1-.83,0c-.08-.07-.07-.1,0-.1h.63a.13.13,0,0,0,.13-.14.57.57,0,0,1,.47-.63l0,0a.11.11,0,0,0,0-.16l-.11-.13c-.07-.09,0-.15.06-.17a.27.27,0,0,1,.18,0,.14.14,0,0,1,.06.18l-.07.22a.28.28,0,0,0,.07.26.55.55,0,0,1,.08.76.42.42,0,0,0-.05.22.42.42,0,0,1-.14.38.16.16,0,0,1-.13,0,.19.19,0,0,1-.18-.19c0-.39.35-.42.42-.75a.38.38,0,0,0-.16-.4l-.07,0a.24.24,0,0,0-.28.15Z" transform="translate(-105.91 -65.91)"/><path class="g" d="M389.77,170.67a.29.29,0,0,1-.24-.21.09.09,0,0,1,0-.09s0,0,.07-.05a.09.09,0,0,1,.11,0l.23.35a.12.12,0,0,0,.1,0,.12.12,0,0,0,.14-.11v-.19h0s0-.06.07-.05h.09c.07,0,.09.05.05.11l-.31.6-.08.05a.11.11,0,0,1-.11-.09l0-.29A.14.14,0,0,0,389.77,170.67Z" transform="translate(-105.91 -65.91)"/><ellipse class="g" cx="389.53" cy="174.79" rx="0.16" ry="0.13" transform="translate(12.82 438.96) rotate(-74.8)"/><path class="g" d="M388.46,177.37a.31.31,0,0,1-.2.52,0,0,0,0,1-.05,0,.14.14,0,0,1-.12-.15.28.28,0,0,0-.26-.37.11.11,0,0,1-.09-.09.1.1,0,0,1,.08-.12A.65.65,0,0,1,388.46,177.37Z" transform="translate(-105.91 -65.91)"/><path class="g" d="M389.81,177.58a.13.13,0,0,1-.16-.07l-.07-.18a.06.06,0,0,1,0-.06.09.09,0,0,1,.12-.06.25.25,0,0,1,.18.25A.14.14,0,0,1,389.81,177.58Z" transform="translate(-105.91 -65.91)"/><path class="g" d="M389.52,178.16a.14.14,0,0,1,0,.07.11.11,0,0,1-.11.09c-.35,0-.76-.39-.62-.81l0,0a.09.09,0,0,1,.12,0Z" transform="translate(-105.91 -65.91)"/><path class="g" d="M389.47,184.81c-.1,0-.14-.05-.13-.15v-.16a.11.11,0,0,1,0-.09.11.11,0,0,1,.15,0l.16.26a0,0,0,0,1,0,0,.07.07,0,0,1-.06.07Z" transform="translate(-105.91 -65.91)"/><path class="g" d="M388.54,185.57a.09.09,0,0,1-.09-.09l.06-.78c0-.09.05-.12.14-.1a.19.19,0,0,1,.08,0,.26.26,0,0,1,0,.19c0,.22-.08.45-.13.68A.1.1,0,0,1,388.54,185.57Z" transform="translate(-105.91 -65.91)"/><path class="g" d="M389.8,185.74a.07.07,0,0,1-.06,0,.07.07,0,0,1-.09-.07.4.4,0,0,1,.24-.44h.05a.09.09,0,0,1,0,.09Z" transform="translate(-105.91 -65.91)"/><path class="g" d="M389.39,186.89c0,.06-.06.09-.12.07a.09.09,0,0,1-.06,0,.45.45,0,0,1,0-.36.3.3,0,0,1,.44-.18,1.17,1.17,0,0,1,.37.32,0,0,0,0,1,0,0s0,0,0,0l-.24-.18-.07,0a.19.19,0,0,0-.23.14Z" transform="translate(-105.91 -65.91)"/><path class="g" d="M325.45,204.08h0a.26.26,0,0,1-.33.15h0a1,1,0,0,1-.59-1.21h0a1,1,0,0,1,1.23-.56h0a.27.27,0,0,1,.16.33Z" transform="translate(-105.91 -65.91)"/><path class="g" d="M328.18,210.62a.41.41,0,0,1-.08-.19,21.25,21.25,0,0,1,.13-2.76.51.51,0,0,1,.49-.54.4.4,0,0,1,.42.25,5,5,0,0,1,.15,3.1.39.39,0,0,1-.17.25A.66.66,0,0,1,328.18,210.62Z" transform="translate(-105.91 -65.91)"/><path class="g" d="M322.57,233.06a1,1,0,0,1,1.12-1,.12.12,0,0,1,.13.1c.18.66-.47,1.84-1.17,1.09A.29.29,0,0,1,322.57,233.06Z" transform="translate(-105.91 -65.91)"/><path class="g" d="M388.67,232.91l-.1.14a.12.12,0,0,1-.15,0l-.07,0c-.09,0-.1-.08-.05-.16l.27-.4a.33.33,0,0,1,.33-.14.25.25,0,0,1,.19.32c0,.13-.13.18-.23.15A.16.16,0,0,0,388.67,232.91Z" transform="translate(-105.91 -65.91)"/><path class="g" d="M388.6,236.08a.09.09,0,0,1,0-.12,1.75,1.75,0,0,0,.29-.91.18.18,0,0,0-.14-.19l-.21-.06a.18.18,0,0,1-.11-.15v-.19c0-.11.06-.15.16-.11a.43.43,0,0,1,.32.39.18.18,0,0,0,.17.16.82.82,0,0,0,.68-.26c.06,0,0-.1,0-.13l-.93-.52a0,0,0,0,1,0-.08l.08-.1h0a.1.1,0,0,1,.14,0,1,1,0,0,0,.58.27.54.54,0,0,1,.27.14.52.52,0,0,1,0,.72l-1.14,1.14A.09.09,0,0,1,388.6,236.08Z" transform="translate(-105.91 -65.91)"/><path class="g" d="M387.11,234.34a.09.09,0,0,1-.07,0,.08.08,0,0,1,0-.12l.26-.28,0,0a.16.16,0,0,1,.21.07l.17.31Z" transform="translate(-105.91 -65.91)"/><path class="g" d="M388.11,234.67a.08.08,0,0,1-.05.08.08.08,0,0,1-.12,0l-.22-.45C388,234.31,388.11,234.45,388.11,234.67Z" transform="translate(-105.91 -65.91)"/><path class="g" d="M389.4,236.09a.42.42,0,0,0,.29.13c.13,0,.17.08.11.2l-.21.43c0,.08-.08.08-.11,0l-.26-.82a.15.15,0,0,1,0-.19,1.11,1.11,0,0,1,.24-.16.07.07,0,0,1,.06,0,.06.06,0,0,1,0,.07C389.37,235.88,389.31,236,389.4,236.09Z" transform="translate(-105.91 -65.91)"/><path class="g" d="M388.68,236.42l.35.28a.11.11,0,0,1,0,.14.11.11,0,0,1-.15,0l-.41-.29a.27.27,0,0,1-.11-.21c0-.1.07-.15.15-.12a.19.19,0,0,1,.13.14Z" transform="translate(-105.91 -65.91)"/><path class="g" d="M387.77,237.11a.16.16,0,0,1,0-.2.41.41,0,0,1,.43-.21c.12,0,.16.07.1.18a.43.43,0,0,1-.41.25Z" transform="translate(-105.91 -65.91)"/><path class="g" d="M387.68,238.36a.17.17,0,0,1-.05-.15l0-.19a.1.1,0,0,0-.08-.12.3.3,0,0,1-.24-.34.2.2,0,0,1,.25-.2.31.31,0,0,1,.24.3c0,.28.1.43.32.45s.19.09.08.21S387.85,238.54,387.68,238.36Z" transform="translate(-105.91 -65.91)"/><path class="g" d="M388.15,249.83a.2.2,0,0,1-.09.09c-.08.05-.13,0-.16-.06a.21.21,0,0,1,0-.15.21.21,0,0,1,.12-.08.53.53,0,0,1,.18,0,.18.18,0,0,0,.16-.19l.07-1c0-.07,0-.09.11-.07a.23.23,0,0,1,.13.18,1.15,1.15,0,0,1-.47,1.28A.3.3,0,0,0,388.15,249.83Z" transform="translate(-105.91 -65.91)"/><path class="g" d="M387.53,249.14a.12.12,0,0,1,.05-.13c.05,0,.08,0,.11,0a.22.22,0,0,1-.12.34h0a.07.07,0,0,1-.1,0,.12.12,0,0,1,0-.14A0,0,0,0,0,387.53,249.14Z" transform="translate(-105.91 -65.91)"/><path class="g" d="M389.49,251.18a.67.67,0,0,1-.21-1.13.08.08,0,0,0,0-.11l-.09-.09,0,0a.13.13,0,0,1,.06-.16.24.24,0,0,1,.26,0c0,.05.06.09,0,.14a.11.11,0,0,0,0,.08.15.15,0,0,0,.1.15l.28.11c.11,0,.15,0,.12-.11a.34.34,0,0,0-.16-.23.11.11,0,0,1,0-.18.32.32,0,0,1,.49,0c.47.4.07,1.6-.13,2.08a.18.18,0,0,1-.25.11.37.37,0,0,1-.3-.44A.2.2,0,0,0,389.49,251.18Zm0-.47v.3a.14.14,0,0,0,.06.13.16.16,0,0,0,.22,0,.34.34,0,0,0-.06-.5C389.6,250.48,389.53,250.52,389.53,250.71Zm.5.43a.11.11,0,0,0-.16,0l-.11.15a.18.18,0,0,0,0,.24.24.24,0,0,0,.31,0s0-.15,0-.37A.08.08,0,0,0,390,251.14Z" transform="translate(-105.91 -65.91)"/><path class="g" d="M388.52,250.71l-.27-.15a.13.13,0,0,1,0-.22l.2-.24a.23.23,0,0,1,.22-.06.21.21,0,0,1,.14.27.57.57,0,0,0,0,.26C388.76,250.76,388.69,250.81,388.52,250.71Z" transform="translate(-105.91 -65.91)"/><path class="g" d="M387.79,250.58H388a.13.13,0,0,1,.1.14.45.45,0,0,0,.33.58.2.2,0,0,0,.19,0,.44.44,0,0,1,.62,0,.12.12,0,0,1,0,.11.11.11,0,0,1-.13.1.61.61,0,0,0-.49.14.11.11,0,0,1-.16,0l-.86-.77a.57.57,0,0,1-.12-.18l-.09-.27a.05.05,0,0,1,0-.07.05.05,0,0,1,.07,0l.07.13A.21.21,0,0,0,387.79,250.58Z" transform="translate(-105.91 -65.91)"/><path class="g" d="M387.65,252.39c-.12,0-.18,0-.19-.17a.32.32,0,0,1-.11-.33.12.12,0,0,1,.06-.06.09.09,0,0,1,.12.06.65.65,0,0,0,.46.46.15.15,0,0,1,.12.22l0,.12a.16.16,0,0,1-.09.07.11.11,0,0,1-.13-.09l0-.14C387.82,252.43,387.76,252.39,387.65,252.39Z" transform="translate(-105.91 -65.91)"/><path class="g" d="M389.34,252.2a.08.08,0,0,1,0,.08.08.08,0,0,1-.12,0l-.22-.22a.09.09,0,0,1,0-.11.1.1,0,0,1,.13-.06A.41.41,0,0,1,389.34,252.2Z" transform="translate(-105.91 -65.91)"/><path class="g" d="M313.75,255.33a.43.43,0,0,1-.56-.22c-.48-1.14.34-2.12,1.19-2.79a.14.14,0,0,1,.09,0,.14.14,0,0,1,.16.14,4.17,4.17,0,0,1-.69,2.75A.47.47,0,0,1,313.75,255.33Z" transform="translate(-105.91 -65.91)"/><path class="g" d="M388.76,252.8l-.05-.14c0-.11,0-.13.1-.08a.27.27,0,0,1,.14.35.12.12,0,0,1-.05,0,.08.08,0,0,1-.12,0,.24.24,0,0,1,0-.13Z" transform="translate(-105.91 -65.91)"/><path class="g" d="M389.05,253.35l.22.18a.22.22,0,0,1,.05.08.13.13,0,0,1-.1.14c-.28.06-.4-.05-.37-.32S388.93,253.25,389.05,253.35Z" transform="translate(-105.91 -65.91)"/><path class="g" d="M388.89,255.21l-.06.11c-.06.11-.14.12-.24,0a.65.65,0,0,1-.24-.35,0,0,0,0,1,0-.06.06.06,0,0,1,.1,0l.18.11a.15.15,0,0,0,.23,0l.25-.32c.09-.13.13-.11.11,0a.5.5,0,0,1-.22.37A.46.46,0,0,0,388.89,255.21Z" transform="translate(-105.91 -65.91)"/><path class="g" d="M389.48,255.14h0a.13.13,0,0,1,.12.11v.4a.2.2,0,0,1-.09.17,3.38,3.38,0,0,0-.86,1,.43.43,0,0,1-.31.2c-.13,0-.14,0,0-.07a.67.67,0,0,0,.27-.69c0-.08,0-.12.1-.12.68,0,.45-.59.68-.92A.09.09,0,0,1,389.48,255.14Z" transform="translate(-105.91 -65.91)"/><path class="g" d="M387.75,258.4l-.21-.14c-.08-.05-.09-.12,0-.21l.26-.41a.16.16,0,0,1,.08-.06.12.12,0,0,1,.15.1l.19.75a.14.14,0,0,1,0,.11c-.14.15-.23.15-.3,0A.36.36,0,0,0,387.75,258.4Z" transform="translate(-105.91 -65.91)"/><path class="g" d="M388.91,258.92a.31.31,0,0,1-.12.28q-.14.09-.18-.06c-.07-.2,0-.31.17-.33S388.9,258.84,388.91,258.92Z" transform="translate(-105.91 -65.91)"/><path class="g" d="M388.53,259.67v.13a.09.09,0,0,1,0,.07.09.09,0,0,1-.13,0l-.23-.28a.08.08,0,0,1,0-.07.09.09,0,0,1,.11-.07.24.24,0,0,1,.11.06A1,1,0,0,1,388.53,259.67Z" transform="translate(-105.91 -65.91)"/><path class="g" d="M309,262a.26.26,0,0,1-.34-.13.26.26,0,0,1,0-.16.27.27,0,0,1,0-.15l1.31-1.79.07-.06a.21.21,0,0,1,.29.08c.6,1.06-.67,1.59-1.3,2.17Z" transform="translate(-105.91 -65.91)"/><path class="g" d="M388.84,260.41v.21c0,.08,0,.12-.11.11l-.45,0h0a.06.06,0,0,1-.06-.06.06.06,0,0,1,.06,0h.13a.24.24,0,0,0,.23-.2.65.65,0,0,1,.54-.59c.13,0,.17,0,.15.14l0,.11a.19.19,0,0,1-.17.16l-.17,0A.16.16,0,0,0,388.84,260.41Z" transform="translate(-105.91 -65.91)"/><path class="g" d="M388,260.36a.22.22,0,0,1-.3,0,.48.48,0,0,1-.09-.39.12.12,0,0,1,.15-.12.33.33,0,0,1,.32.41A.22.22,0,0,1,388,260.36Z" transform="translate(-105.91 -65.91)"/><path class="g" d="M388.58,261.86a.28.28,0,0,0-.16-.14l-.18-.07a.15.15,0,0,1-.1-.09.17.17,0,0,1,.09-.22l.63-.26h0a.14.14,0,0,1,.18.1.73.73,0,0,1-.16.72c-.06.07,0,.13.05.15l.3.1a.13.13,0,0,1,.09.17l-.05.21a0,0,0,0,0,0,0,.11.11,0,0,1-.14,0l-.55-.3A.36.36,0,0,0,388.58,261.86Z" transform="translate(-105.91 -65.91)"/><path class="g" d="M389,263.05a.44.44,0,0,1,.11.24l.09.51s0,.06-.06.05l-.67-.11h0l0-.06s0,0,0-.05a.09.09,0,0,1,.1-.09h.26c.11,0,.15-.06.11-.16a.4.4,0,0,0-.4-.28.14.14,0,0,1-.15-.13l-.12-.68c0-.08,0-.1.09-.07a.55.55,0,0,0,.32.07A1.3,1.3,0,0,0,389,263.05Z" transform="translate(-105.91 -65.91)"/><path class="g" d="M304.45,281.21s0-.06,0-.09a.33.33,0,0,1,.41-.18c.9.36,1.29,2.21.11,2.26C304.3,283.23,304.41,281.64,304.45,281.21Z" transform="translate(-105.91 -65.91)"/><path class="g" d="M308.19,286.38c-.56-.13-.29-1.12.21-1.31a.24.24,0,0,1,.22,0,.77.77,0,0,1,.43.7.39.39,0,0,1-.16.34A.89.89,0,0,1,308.19,286.38Z" transform="translate(-105.91 -65.91)"/><path class="g" d="M309.5,285.81a.21.21,0,0,1,.11-.28l.07,0a.8.8,0,0,1,1,.47l.06.13a.8.8,0,0,1-.34,1.08l-.07,0a.22.22,0,0,1-.29-.12Z" transform="translate(-105.91 -65.91)"/><path class="g" d="M313.16,300.43a2.35,2.35,0,0,1,.53-1.66.88.88,0,0,0,.13-1.11.37.37,0,0,1,0-.38.35.35,0,0,1,.46-.16c2.35,1.16,1.24,4-.95,3.47A.16.16,0,0,1,313.16,300.43Z" transform="translate(-105.91 -65.91)"/><path class="g" d="M312.32,312.39a.77.77,0,0,1,.19-1.17.28.28,0,0,1,.25,0c.85.21.48,1,0,1.31A.27.27,0,0,1,312.32,312.39Z" transform="translate(-105.91 -65.91)"/><path class="g" d="M312.46,313.9a.18.18,0,0,1,0-.27l0,0h0a.8.8,0,0,1,1.12.17l0,.05h0a.8.8,0,0,1-.21,1.11l0,0a.21.21,0,0,1-.28,0Z" transform="translate(-105.91 -65.91)"/><path class="g" d="M315.09,318.63l0,.06a.33.33,0,0,1-.45.06l-.61-.49a.35.35,0,0,1-.14-.2.41.41,0,0,1,.26-.53A.77.77,0,0,1,315.09,318.63Z" transform="translate(-105.91 -65.91)"/><path class="g" d="M309.22,320.18h0s0,.07-.06.07h-.22c-.41,0-.78-.48-.81-1.11l0-.31c0-.63.28-1.16.69-1.19H309a.06.06,0,0,1,.06.06Z" transform="translate(-105.91 -65.91)"/><path class="g" d="M312.94,323.39h0a.46.46,0,0,1,.4-.5h0c1-.13,1.95.33,2,1v0h0c.09.7-.67,1.38-1.7,1.51h0a.45.45,0,0,1-.51-.39Z" transform="translate(-105.91 -65.91)"/><path class="g" d="M313.87,357.15a.11.11,0,0,1,.1-.11h0a.86.86,0,0,1,.89.83v.07a.86.86,0,0,1-.83.89h0a.1.1,0,0,1-.11-.1Z" transform="translate(-105.91 -65.91)"/></g><g class="f"><path class="g" d="M109,242.46a.52.52,0,0,0,0,.29.2.2,0,0,0,.37-.17q-.06-.18-.42-.12v-.25c0-.12.06-.15.16-.09l.45.24a.1.1,0,0,0,.14,0,.14.14,0,0,0,0-.09l-.09-.21a.24.24,0,0,1,0-.22c.47-1.26-.64-2-1-3a.13.13,0,0,1,.1-.19l.93-.27a.2.2,0,0,0,.14-.15,2.48,2.48,0,0,0,.07-1c0-.11-.11-.17-.26-.18a.16.16,0,0,1-.15-.17h0a.29.29,0,0,1,.24-.26.16.16,0,0,0,.14-.19.17.17,0,0,0-.18-.15c-.87,0-.53.72-1,1.14a.24.24,0,0,1-.22.06.22.22,0,0,1-.13-.09c0-.07,0-.12,0-.15a.66.66,0,0,0,.53-.62.5.5,0,0,1,.09-.24l.38-.55a.11.11,0,0,1,.16,0h0a.18.18,0,0,1,.06.09.22.22,0,0,0,.08.13c.14.09.21.08.24,0a.2.2,0,0,0-.06-.18c-.33-.28-.27-.6-.47-.88a2.56,2.56,0,0,0-.78-.69.14.14,0,0,0-.19.05.14.14,0,0,0,0,.15l.84,1s0,.05,0,.08l0,0s0,0,0,0l-1.21-.85c-.11-.08-.15,0-.14.08a.66.66,0,0,0,.55.61.12.12,0,0,1-.06.24,2.85,2.85,0,0,1-.54-.18.08.08,0,0,0-.1,0s0,0,0,.05a.37.37,0,0,1-.26.5c-.12,0-.19,0-.19-.14v-.19c0-.09,0-.11-.12-.07a.22.22,0,0,0-.12.26,1,1,0,0,0,.31.65.29.29,0,0,0,.23.1H108c.13,0,.13,0,0,.09l-.6.29a.16.16,0,0,1-.2,0,1.78,1.78,0,0,1-.37-1.15c.05-1.71.43-3.39.5-5.15.05-1.41.32-2.95.41-4.2.07-.95.15-1.91.23-2.87.27-2.94.23-5.92.25-8.88a4.92,4.92,0,0,0-2.3-4.66s0-.05,0-.08a2.28,2.28,0,0,0,.62-1.85,51.48,51.48,0,0,1-.51-10.53c0-1,1.07-2,.81-3.55a3.34,3.34,0,0,1,.17-1.41.14.14,0,0,1,.16-.1l.06,0,.51.46a.13.13,0,0,0,.18,0,.13.13,0,0,0,0-.19l-.18-.22a.18.18,0,0,1,0-.21l.92-1.1c.12-.14.08-.21-.1-.2a.19.19,0,0,0-.2.2.12.12,0,0,1-.12.12h-.11a.16.16,0,0,0-.17.14.6.6,0,0,1-.4.46.18.18,0,0,1-.23-.1.17.17,0,0,1,.06-.19l1.22-1a.23.23,0,0,0,.08-.2A.4.4,0,0,1,109,190a.15.15,0,0,0,.08-.2.1.1,0,0,0,0-.05l-.48-.4a.08.08,0,0,1,0-.14c0-.05.08-.06.12,0a1.26,1.26,0,0,0,1,.4.09.09,0,0,0,.08-.1.09.09,0,0,0-.06-.07.74.74,0,0,1-.5-.59q0-.16.12-.09a.87.87,0,0,1,.36.4.17.17,0,0,0,.24.1l.17-.07c.11,0,.13-.11.08-.2l-.19-.38a.21.21,0,0,1,0-.23,1.22,1.22,0,0,0,.19-1.06c0-.09-.06-.1-.13,0a.5.5,0,0,0-.16.7.17.17,0,0,1-.08.22h-.37c-.13,0-.15,0-.07-.14a.56.56,0,0,0,0-.8,6.41,6.41,0,0,1-.78-1.14.09.09,0,0,1,0-.13.06.06,0,0,1,.07,0l.08,0c.28.1.31.06.09-.13l-.42-.36a.12.12,0,0,0-.16,0,.12.12,0,0,0,0,.1l0,.15s0,.06,0,.06l-.22,0a.17.17,0,0,1-.18-.19c0-.32-.1-.46-.34-.43s-.39,0-.43-.21a.24.24,0,0,0-.28-.17.23.23,0,0,0-.17.16l-.08.24a.07.07,0,0,1-.1,0,.06.06,0,0,1,0-.06l0-2.21a.47.47,0,0,1,.46-.48.33.33,0,0,1,.17,0c.25.09.4,0,.46-.27a.15.15,0,0,1,.13-.12.63.63,0,0,1,.73.52.15.15,0,0,0,.18.11.16.16,0,0,0,.1-.11l.12-.36a.09.09,0,0,1,.12-.07h0l.14.05a.11.11,0,0,0,.13,0,.19.19,0,0,0,0-.28.2.2,0,0,0-.23-.07l-.26.09s-.06,0-.06,0a.26.26,0,0,1,.06-.22,1.67,1.67,0,0,0,.4-.67.24.24,0,0,1,.17-.19l.42-.13a.11.11,0,0,0,.08-.14l0,0a.92.92,0,0,1-.23-.74.14.14,0,0,0-.06-.12.19.19,0,0,0-.17,0c-.1,0-.17,0-.21-.08q-.18-.47.27-.6a.13.13,0,0,0,.09-.15l0-.13a.16.16,0,0,1,.07-.14l.61-.39a.29.29,0,0,0,.15-.26v-5.22a.23.23,0,0,1,.07-.17.3.3,0,0,0,.09-.28,1.35,1.35,0,0,1,0-.24q0-6.6.09-13.21a.37.37,0,0,0-.07-.23c-.19-.33,0-.55,0-.82,0-1.3,0-2.61,0-3.91a.21.21,0,0,0-.12-.19,6,6,0,0,1-2.34-1.92,1.25,1.25,0,0,0-1-.56.13.13,0,0,1-.12-.14A77.64,77.64,0,0,1,107.9,142a89.64,89.64,0,0,0,.26-9.63c0-.09,0-.13.13-.12a14.83,14.83,0,0,1,7.7,3c2.78,2.18,5.14,3.56,7.13,6.29a2,2,0,0,0,.75.64,63,63,0,0,1,6.42,3.33,12,12,0,0,0,3.92,1.93,31.49,31.49,0,0,1,11,4.07.48.48,0,0,0,.23.07c4.52.07,8.12,1.82,12.37,2.93a24.78,24.78,0,0,1,5.55,2.43,3.24,3.24,0,0,0,1.3.38,36.18,36.18,0,0,0,6.5,0c.09,0,.14,0,.13.13-.14,1.1-.83,1.51-1.19,2.31-.87,1.92,0,4,1.28,5.65a.34.34,0,0,1,.07.22c0,2.73,0,5.44,0,8.15a6.14,6.14,0,0,1,0,1.8.37.37,0,0,1-.14.18c-.38.23-.76.44-1.15.63-.2.09-.22.22-.06.38a.2.2,0,0,0,.16.07h7.2a2.38,2.38,0,0,1,2.32,2.73,1.23,1.23,0,0,0,.48.88,2.93,2.93,0,0,1,.6,3.67,70,70,0,0,0-3,7.84c-.2.64-.56.7-1.11.94-.78.34-.4,1.65-1.11,2.36l-5,5c-1,1-2.23,2.52-2.36,3.93s-1.93,1.25-2,3.08c0,2-.12,3.9-.26,5.7a1.44,1.44,0,0,0,.31,1l4.9,6.24a1.17,1.17,0,0,1,.24.71c0,3,.79,6.21-1.55,8.64a.3.3,0,0,0-.1.2c-.37,2.29-.36,4.36.75,6.09a38.25,38.25,0,0,0,5.27,6.57.32.32,0,0,1,.1.21c.17,2.11.17,4.23.23,6.34a2.08,2.08,0,0,0,.36,1.19,28.3,28.3,0,0,1,3.08,5.22,9.19,9.19,0,0,0,2.63,3.55.46.46,0,0,1,.13.21c.26,1,.22,1.47,1.22,1.92.82.36,1,2.79,1.18,3.58a1.07,1.07,0,0,0,.32.6q3.93,3.92,7.83,7.88c1.66,1.69,2.64,3.43,1.61,5.69a10.64,10.64,0,0,1-2.1,2.6q-3.75,3.78-7.43,7.66a.36.36,0,0,0-.11.22c-.11.94.27,1.87-.74,2.5a3.39,3.39,0,0,0-1.61,3.76,1.53,1.53,0,0,1-.36,1.4c-.29.34-1,.49-1.17.85a13.74,13.74,0,0,1-4.23,4.62.55.55,0,0,0-.14.76c.12.18.31.22.57.1s.61-.27.82-.37a.61.61,0,0,1,.72.12c.87.9,1.74,1.82,2.61,2.77a2.73,2.73,0,0,1,.53,2.2.28.28,0,0,0,.13.23,1.56,1.56,0,0,1,.44,2.55.3.3,0,0,0,0,.26c.45,1.35-.16,2.22-.53,3.34-.55,1.63.36,4.4-.86,5.26a3,3,0,0,0-1.35,2.41,9.68,9.68,0,0,0,.6,2.35.42.42,0,0,1,0,.25c-1.23,2.91.4,4.58,2.91,5.64,1.73.74,2.93,1.23,3.61,1.49a1.84,1.84,0,0,1,1.38,1.67,3.71,3.71,0,0,0,1.38,2.46.31.31,0,0,1,.11.2,9.18,9.18,0,0,1-1.3,6.43,29.48,29.48,0,0,0-4,9.9c-.12.58-1.27,1.56-1.65,2.11a.37.37,0,0,0-.05.23c.2,1.38-.48,2.35-1,3.82q-1.91,4.92-5.52,13.57a.45.45,0,0,0,0,.23,1.92,1.92,0,0,1,0,.72q-2.22,5.37-4.42,10.75a.19.19,0,0,1-.15.12,1,1,0,0,1-.77-.18.42.42,0,0,0-.21-.06h-.75a.37.37,0,0,1-.25-.1c-.24-.24-.6-.14-.84-.19a152.45,152.45,0,0,1-48.35-17.8q-5.68-3.32-11.24-6.77a.28.28,0,0,1-.13-.23l.67-92a.19.19,0,0,0-.1-.18.39.39,0,0,1-.21-.37.08.08,0,0,1,.08-.07h0l.16,0a.09.09,0,0,0,.1,0,.31.31,0,0,0-.19-.44.33.33,0,0,1-.18-.19.47.47,0,0,1,.32-.68.14.14,0,0,0,.08-.18l0,0,0-.06a.31.31,0,0,1-.07-.21l.14-1.39a.21.21,0,0,0-.1-.2l-.24-.14a.11.11,0,0,1,0-.15.11.11,0,0,1,.11-.06h.09a.13.13,0,0,0,.13-.13,14.31,14.31,0,0,0-.1-3.46.12.12,0,0,0-.14-.1.11.11,0,0,0-.07,0l-.42.4a.09.09,0,0,0,0,.13.12.12,0,0,0,.09,0l.3-.08a.06.06,0,0,1,.08.05,0,0,0,0,1,0,.06.54.54,0,0,0,.1.79.19.19,0,0,1,0,.26.16.16,0,0,1-.11,0,.69.69,0,0,0-.4.17c-.13.12-.19.1-.19-.08v-.89a.16.16,0,0,0-.16-.16h-.16c-.16,0-.2-.05-.12-.2.21-.35.91-.51.6-1.06a.11.11,0,0,1,0-.15.1.1,0,0,1,.13,0l.38.37a.11.11,0,0,0,.17,0,.13.13,0,0,0,0-.07,3,3,0,0,0-.37-1.78.18.18,0,0,1,0-.22,1.34,1.34,0,0,0,.11-1.68.17.17,0,0,1,0-.23c.41-.41.15-1.59.23-2.19,0-.11,0-.14-.13-.09l-.22.1a.09.09,0,0,1-.12,0,.07.07,0,0,1,0-.05V252a.12.12,0,0,0-.1-.12.58.58,0,0,1-.46-.25.34.34,0,0,1-.06-.24.85.85,0,0,1,.37-.65.14.14,0,0,0,0-.21l-.18-.26a.17.17,0,0,1,0-.23l.09-.1c.08-.07.12-.06.12,0a.21.21,0,0,0,.11.2.2.2,0,0,0,.17,0,.45.45,0,0,0,.29-.34q0-.23-.18-.15l-.19.07s-.07,0-.08,0a0,0,0,0,1,0-.05.57.57,0,0,0,0-.74.09.09,0,0,1,0-.14l0,0h.11a.23.23,0,0,0,.16-.11.26.26,0,0,0,0-.32.15.15,0,0,0-.24,0l-.19.17a.05.05,0,0,1-.08,0l0,0-.3-1.57a.18.18,0,0,1,.14-.22.2.2,0,0,1,.2.09l.38.6a.12.12,0,0,0,.17,0h0l0,0a.16.16,0,0,0,0-.2l-.34-.59a.14.14,0,0,0-.14-.08h-.32a.15.15,0,0,1-.14-.14v0a.63.63,0,0,0-.2-.55.11.11,0,0,1,0-.15l.18-.23a.13.13,0,0,0,0-.2l-.53-.42a.12.12,0,0,0-.18,0l0,.05,0,.15a.08.08,0,0,1-.1.07.15.15,0,0,1-.06-.05c-.13-.32.2-.49-.08-.82-.06-.07,0-.12,0-.17l.67-.35a.24.24,0,0,0,.09-.32.2.2,0,0,0-.12-.1l-.2-.08a.21.21,0,0,1-.13-.13c-.06-.16-.31-.24-.76-.22a0,0,0,0,1,0-.05h0l-.09-1.71a.2.2,0,0,1,.12-.2l.72-.31a.22.22,0,0,1,.29.1.21.21,0,0,1,0,.25.79.79,0,0,0-.24.5.1.1,0,0,1-.09.07s0,0,0,0l-.41-.41a.14.14,0,0,0-.18,0,.15.15,0,0,0,0,.19l.6.84a.5.5,0,0,1,.09.23l.07.33a.13.13,0,0,0,.1.1.4.4,0,0,1,.36.39.15.15,0,0,0,.16.14h.25a.15.15,0,0,0,.16-.15v0c0-.2-.15-.3-.37-.3s-.17-.06-.16-.18l0-.36a.12.12,0,0,1,.13-.1.09.09,0,0,1,.08,0Zm.8-63.93a.14.14,0,0,0,0,.08.19.19,0,0,0,0,.13.18.18,0,0,0,.09.08.39.39,0,0,0,.26,0,.13.13,0,0,0,.08-.17h0C110.05,178.45,109.93,178.42,109.75,178.53Zm.13.75a.08.08,0,0,0,.1.06l.14,0a.12.12,0,0,0,.09-.14v0c-.06-.11-.14-.14-.23-.09A.17.17,0,0,0,109.88,179.28Zm-.36.29c.07,0,.17,0,.22-.14s0-.22,0-.25-.17,0-.22.13S109.45,179.53,109.52,179.57Zm.36,1.38a.1.1,0,0,0-.09-.09h0l-.34.16a.16.16,0,0,0,.09.31A.38.38,0,0,0,109.88,181Zm-.93,1.94.34.54a.08.08,0,0,0,.15-.05l-.07-.46a.17.17,0,0,0-.19-.16H109a.07.07,0,0,0-.08.08A.09.09,0,0,0,109,182.89Zm-2.22,1.46a.57.57,0,0,0-.09.32.17.17,0,0,0,.18.17.19.19,0,0,0,.15-.08.44.44,0,0,0,0-.3.17.17,0,0,0-.06-.12.22.22,0,0,0-.18,0A.05.05,0,0,0,106.73,184.35Zm2.52,2.16a.38.38,0,0,0,.24.25.11.11,0,0,0,.13-.08,0,0,0,0,0,0-.05l-.15-.51a.16.16,0,0,0-.2-.11.2.2,0,0,0-.11.11Q109.07,186.45,109.25,186.51Zm-1.1,6.51a.07.07,0,0,0-.09,0l0,0-.13.37a.09.09,0,0,1-.08.06c-.2,0-.31.1-.33.24a.37.37,0,0,0,.13.33.89.89,0,0,0,.58.24.08.08,0,0,0,.1-.08.09.09,0,0,0,0-.1L108,194a.1.1,0,0,1,0-.14h0l.07-.12s0,0,.07,0c.2.1.43,0,.67-.47a.11.11,0,0,1,.15,0,.08.08,0,0,1,0,.07.25.25,0,0,1-.18.31.1.1,0,0,0,0,.16.19.19,0,0,0,.2.07h0a.7.7,0,0,0,.47-.56.16.16,0,0,0-.09-.2l-.73-.34a.18.18,0,0,1-.1-.17.39.39,0,0,0-.08-.28c-.07-.09-.13-.08-.19,0a.47.47,0,0,0,.15.76.15.15,0,0,1,.07.14.06.06,0,0,1-.08.05A.52.52,0,0,1,108.15,193Zm-1.17.47c-.16.25-.11.44.14.55a.11.11,0,0,0,.15,0,.07.07,0,0,0,0-.06l0-.38a.14.14,0,0,0-.15-.13A.16.16,0,0,0,107,193.49Zm1.7,15c0,.13.1.17.23.13a.13.13,0,0,0,.08-.16.14.14,0,0,0-.12-.09h-.09C108.7,208.4,108.67,208.44,108.68,208.52Zm.83,24.07a.5.5,0,0,0-.66.23.16.16,0,0,0,.09.26.15.15,0,0,0,.2-.05c.13-.2.24-.21.35,0s.15.14.22,0l.26-.56a.09.09,0,0,0-.06-.12.08.08,0,0,0-.1,0l-.09.15A.16.16,0,0,1,109.51,232.59Zm-1.3.4v-.13a.05.05,0,0,0-.06-.06h-.08s-.06,0,0,.06l.16.55a.11.11,0,0,0,.22,0,.35.35,0,0,0-.14-.28A.16.16,0,0,1,108.21,233Zm1.62.82s0-.06,0-.1a.16.16,0,0,0-.15-.17.28.28,0,0,1-.21-.14.21.21,0,0,0-.29-.09.24.24,0,0,0-.12.2.38.38,0,0,0,.2.34.18.18,0,0,1,.11.21,1.11,1.11,0,0,0,.38,1,.09.09,0,0,0,.12,0,.07.07,0,0,0,0-.07,6.71,6.71,0,0,1-.08-1.1A.15.15,0,0,1,109.83,233.81Zm-2.26-.09a.14.14,0,0,0,0,.2.13.13,0,0,0,.17.05.12.12,0,0,0,0-.05l.06-.1a.14.14,0,0,0-.06-.19l0,0C107.62,233.6,107.57,233.63,107.57,233.72Zm2,4.82a.89.89,0,0,0-.08,1.17.18.18,0,0,0,.24,0,.17.17,0,0,0,.07-.14l0-1a.15.15,0,0,0-.15-.15A.16.16,0,0,0,109.61,238.54Zm-1.3,5.4-.32.11a.23.23,0,0,0,0,.44c.27.08.44,0,.5-.21A.38.38,0,0,1,109,244a.37.37,0,0,1,.22.17,1,1,0,0,1,.14.71.11.11,0,0,0,.06.13l.15.09a.1.1,0,0,0,.14,0s0,0,0,0a1.55,1.55,0,0,0-.21-1.19.15.15,0,0,1,0-.2,1.1,1.1,0,0,0,.24-.7c0-.13,0-.2-.14-.2a.11.11,0,0,0-.14.11.85.85,0,0,1-.93.9.15.15,0,0,0-.13.09A.14.14,0,0,1,108.31,243.94Zm.44.86c-.09.1-.06.2.07.28a.09.09,0,0,0,.12,0,.09.09,0,0,0,0-.05v-.13a.11.11,0,0,0-.11-.11A.1.1,0,0,0,108.75,244.8Zm.66,3.36.07,0a.16.16,0,0,0,.13,0s.06,0,.07-.09,0-.27-.2-.34a.11.11,0,0,0-.15.06v0A.56.56,0,0,0,109.41,248.16Zm.18,16.73c-.08,0-.13.06-.14.16a.22.22,0,0,0,0,.14.19.19,0,0,0,.14.05.17.17,0,0,0,.16-.19.21.21,0,0,0-.21-.16Z" transform="translate(-105.91 -65.91)"/><path class="g" d="M107.72,156a.48.48,0,0,1,.43.51.74.74,0,0,1,0,.14,1.57,1.57,0,0,1-1.24,1c-.29.06-.43-.06-.42-.35l0-.82a.29.29,0,0,1,.14-.24A1.89,1.89,0,0,1,107.72,156Z" transform="translate(-105.91 -65.91)"/><path class="g" d="M107.63,157.82a.39.39,0,0,1,.07.31.09.09,0,0,1-.1.08.11.11,0,0,1-.08-.1v-.25a.06.06,0,0,1,.06-.06A0,0,0,0,1,107.63,157.82Z" transform="translate(-105.91 -65.91)"/><path class="g" d="M107.33,162.12l.16.53a.08.08,0,0,1-.06.11h0l-.38,0a.16.16,0,0,0-.15.17s0,0,0,0c0,.16,0,.26-.13.31s-.15.12,0,.22a1.06,1.06,0,0,1,.42.67.42.42,0,0,1-.43.54c-.08,0-.11,0-.1-.11a2,2,0,0,0,0-1,.52.52,0,0,1,0-.25c.19-1.28-.13-2.58.24-4,0-.13.09-.14.17,0a.8.8,0,0,1,.21.77.39.39,0,0,0,.26.47.3.3,0,0,0,.21,0c.09,0,.17,0,.23.12s0,.81.2,1.19a.14.14,0,0,0,.18.06.15.15,0,0,0,.08-.08l.09-.3c0-.06,0-.1-.07-.11l-.12,0a.11.11,0,0,1-.06-.15.1.1,0,0,1,.1-.07h.1a.08.08,0,0,1,.08.06.38.38,0,0,0,.33.32.12.12,0,0,1,.09.14.16.16,0,0,1-.06.08l-.2.1a.12.12,0,0,0-.08.11.13.13,0,0,0,.08.15.21.21,0,0,1,.09.29.22.22,0,0,1-.29.1l-1-.49C107.33,162,107.3,162,107.33,162.12Zm-.25-1.33-.28.11a.1.1,0,0,0,0,.13.11.11,0,0,0,.07.06.31.31,0,0,0,.39-.18.09.09,0,0,0,0-.12Z" transform="translate(-105.91 -65.91)"/><path class="g" d="M173.46,174.79a.09.09,0,0,1-.11-.08l-.11-.75a11.85,11.85,0,0,1-.25-3.7h0c.17,0,.54,1.58.84,3.6v0l.11.74a.1.1,0,0,1-.08.12Z" transform="translate(-105.91 -65.91)"/><path class="g" d="M107,172.49a.22.22,0,0,0-.27-.16l-.07,0a.37.37,0,0,0-.16.4c.07.33.41.36.42.75a.19.19,0,0,1-.18.19.2.2,0,0,1-.13,0,.42.42,0,0,1-.14-.38.33.33,0,0,0-.06-.22.57.57,0,0,1,.09-.77.24.24,0,0,0,.06-.25l-.06-.22a.14.14,0,0,1,0-.18.24.24,0,0,1,.19,0c.11,0,.13.07.06.16l-.11.14a.11.11,0,0,0,0,.16l0,0a.57.57,0,0,1,.47.63.13.13,0,0,0,.13.14H108q.15,0,0,.09a.63.63,0,0,1-.83,0,.19.19,0,0,1-.09-.14Z" transform="translate(-105.91 -65.91)"/><path class="g" d="M106.92,174.18l0,.3a.1.1,0,0,1-.11.08.1.1,0,0,1-.08-.05l-.32-.59q0-.1.06-.12h.09a.07.07,0,0,1,.07.06h0V174a.13.13,0,0,0,.14.12.11.11,0,0,0,.1-.06l.23-.34a.08.08,0,0,1,.11,0s.06,0,.07,0a.1.1,0,0,1,0,.09.29.29,0,0,1-.24.22A.14.14,0,0,0,106.92,174.18Z" transform="translate(-105.91 -65.91)"/><ellipse class="g" cx="107.27" cy="178.17" rx="0.13" ry="0.16" transform="translate(-148.87 -31.55) rotate(-15.2)"/><path class="g" d="M109,180.55a.1.1,0,0,1,.09.12.1.1,0,0,1-.09.08c-.2,0-.29.16-.26.38a.15.15,0,0,1-.13.15h0a.32.32,0,0,1-.28-.24.33.33,0,0,1,.08-.28A.6.6,0,0,1,109,180.55Z" transform="translate(-105.91 -65.91)"/><path class="g" d="M106.92,180.85a.25.25,0,0,1,.18-.25.09.09,0,0,1,.12.05.09.09,0,0,1,0,.07l-.07.18a.12.12,0,0,1-.16.06A.12.12,0,0,1,106.92,180.85Z" transform="translate(-105.91 -65.91)"/><path class="g" d="M107.84,180.87a.08.08,0,0,1,.12,0l0,0c.14.41-.27.77-.62.8a.1.1,0,0,1-.09-.16Z" transform="translate(-105.91 -65.91)"/><path class="g" d="M107.14,188.19a.05.05,0,0,1-.06-.06,0,0,0,0,1,0,0l.16-.27a.11.11,0,0,1,.15,0,.09.09,0,0,1,0,.08v.17c0,.1,0,.14-.13.14Z" transform="translate(-105.91 -65.91)"/><path class="g" d="M108.17,188.89c0-.23-.09-.46-.13-.68a.25.25,0,0,1,0-.19l.08,0c.09,0,.14,0,.14.11l.06.77a.11.11,0,0,1-.09.1A.1.1,0,0,1,108.17,188.89Z" transform="translate(-105.91 -65.91)"/><path class="g" d="M106.82,188.75s0-.08,0-.09h0a.4.4,0,0,1,.24.44s-.05.07-.09.07,0,0-.06,0Z" transform="translate(-105.91 -65.91)"/><path class="g" d="M107.36,190.07a.2.2,0,0,0-.24-.14l-.06,0-.24.17h0s0,0,0,0a1.15,1.15,0,0,1,.36-.33.32.32,0,0,1,.45.18.44.44,0,0,1,0,.37s0,0,0,0a.08.08,0,0,1-.12-.06Z" transform="translate(-105.91 -65.91)"/><path class="g" d="M170.88,206.16a.27.27,0,0,1,.16-.33h0a1,1,0,0,1,1.23.56h0v0a1,1,0,0,1-.59,1.21h0a.25.25,0,0,1-.33-.16h0Z" transform="translate(-105.91 -65.91)"/><path class="g" d="M167.68,214.11a.37.37,0,0,1-.17-.25,5,5,0,0,1,.15-3.1.4.4,0,0,1,.41-.24.52.52,0,0,1,.5.54,23.08,23.08,0,0,1,.12,2.76.32.32,0,0,1-.07.19A.66.66,0,0,1,167.68,214.11Z" transform="translate(-105.91 -65.91)"/><path class="g" d="M174.15,236.68c-.7.74-1.35-.43-1.18-1.09a.12.12,0,0,1,.14-.1,1,1,0,0,1,1.11.95A.26.26,0,0,1,174.15,236.68Z" transform="translate(-105.91 -65.91)"/><path class="g" d="M107.94,236.23c-.11,0-.18,0-.23-.16a.24.24,0,0,1,.19-.31.33.33,0,0,1,.33.13l.27.41a.09.09,0,0,1,0,.16l-.07,0a.13.13,0,0,1-.15,0l-.1-.14A.17.17,0,0,0,107.94,236.23Z" transform="translate(-105.91 -65.91)"/><path class="g" d="M108.09,239.46,107,238.31a.51.51,0,0,1,0-.71.47.47,0,0,1,.28-.14,1,1,0,0,0,.58-.28.1.1,0,0,1,.14,0h0l.08.1s0,.07,0,.09l-.94.51c-.06,0-.07.09,0,.14a.84.84,0,0,0,.69.25.17.17,0,0,0,.17-.15.43.43,0,0,1,.31-.39c.11,0,.16,0,.16.11V238a.14.14,0,0,1-.1.14l-.21.07a.18.18,0,0,0-.14.19,1.69,1.69,0,0,0,.29.91.09.09,0,0,1,0,.12A.08.08,0,0,1,108.09,239.46Z" transform="translate(-105.91 -65.91)"/><path class="g" d="M109.08,237.65l.17-.32a.16.16,0,0,1,.21-.06l0,0,.26.27a.09.09,0,0,1,0,.13.07.07,0,0,1-.07,0Z" transform="translate(-105.91 -65.91)"/><path class="g" d="M109.08,237.65l-.22.45a.09.09,0,0,1-.12,0,.1.1,0,0,1,0-.08C108.69,237.83,108.82,237.7,109.08,237.65Z" transform="translate(-105.91 -65.91)"/><path class="g" d="M107.24,239.14a.06.06,0,0,1,0-.07.07.07,0,0,1,.06,0l.24.16a.19.19,0,0,1,0,.2l-.26.82c0,.09-.07.09-.11,0l-.21-.43c-.06-.12,0-.19.11-.2a.42.42,0,0,0,.29-.14C107.49,239.38,107.43,239.27,107.24,239.14Z" transform="translate(-105.91 -65.91)"/><path class="g" d="M108.14,239.78a.2.2,0,0,1,.13-.14c.08,0,.15,0,.15.13a.29.29,0,0,1-.11.21l-.41.28a.11.11,0,0,1-.15,0,.11.11,0,0,1,0-.14l.35-.28Z" transform="translate(-105.91 -65.91)"/><path class="g" d="M108.94,240.52a.45.45,0,0,1-.4-.25c-.06-.11,0-.17.1-.19a.42.42,0,0,1,.43.22.14.14,0,0,1,0,.19Z" transform="translate(-105.91 -65.91)"/><path class="g" d="M108.57,241.71c-.11-.12-.08-.19.08-.21s.33-.17.32-.46a.32.32,0,0,1,.24-.3.21.21,0,0,1,.25.2.31.31,0,0,1-.24.35.1.1,0,0,0-.08.12l0,.18a.2.2,0,0,1,0,.15C108.94,241.93,108.76,241.92,108.57,241.71Z" transform="translate(-105.91 -65.91)"/><path class="g" d="M108.57,253.13a1.14,1.14,0,0,1-.47-1.27.23.23,0,0,1,.13-.18c.06,0,.1,0,.1.06l.08,1a.18.18,0,0,0,.16.18l.18,0a.24.24,0,0,1,.11.08.16.16,0,0,1,0,.16q0,.12-.15.06a.2.2,0,0,1-.09-.09A.24.24,0,0,0,108.57,253.13Z" transform="translate(-105.91 -65.91)"/><path class="g" d="M109.29,252.59a.12.12,0,0,1,0,.14.08.08,0,0,1-.1,0h0c-.16-.09-.2-.2-.12-.34s.06-.06.11,0a.14.14,0,0,1,0,.14S109.27,252.57,109.29,252.59Z" transform="translate(-105.91 -65.91)"/><path class="g" d="M107.21,254.78a.39.39,0,0,1-.3.44.18.18,0,0,1-.25-.11c-.2-.48-.6-1.68-.13-2.08a.32.32,0,0,1,.49,0c.06.06,0,.12,0,.17a.36.36,0,0,0-.16.24c0,.11,0,.14.12.1l.28-.11a.13.13,0,0,0,.1-.14.1.1,0,0,0,0-.08.08.08,0,0,1,0-.14.24.24,0,0,1,.26,0,.12.12,0,0,1,.06.15l0,0-.09.09a.08.08,0,0,0,0,.11.66.66,0,0,1-.21,1.12A.2.2,0,0,0,107.21,254.78Zm-.16-.79a.32.32,0,0,0-.06.49.16.16,0,0,0,.22,0,.15.15,0,0,0,.06-.13v-.3C107.27,253.9,107.2,253.87,107.05,254Zm-.32.6c0,.21-.06.33,0,.36a.24.24,0,0,0,.31,0,.18.18,0,0,0,0-.23l-.11-.15a.12.12,0,0,0-.16,0A.1.1,0,0,0,106.73,254.59Z" transform="translate(-105.91 -65.91)"/><path class="g" d="M108.06,254a.63.63,0,0,0,0-.27.2.2,0,0,1,.14-.26.21.21,0,0,1,.22.06l.2.23a.13.13,0,0,1,0,.22l-.27.16C108.11,254.19,108,254.15,108.06,254Z" transform="translate(-105.91 -65.91)"/><path class="g" d="M109.2,253.85l.07-.13a.05.05,0,0,1,.07,0,.06.06,0,0,1,0,.07l-.09.27a.57.57,0,0,1-.12.18l-.86.77a.1.1,0,0,1-.16,0,.57.57,0,0,0-.49-.13.12.12,0,0,1-.13-.1.11.11,0,0,1,0-.11.43.43,0,0,1,.62,0,.19.19,0,0,0,.19,0,.44.44,0,0,0,.33-.57.12.12,0,0,1,.1-.14h.2A.22.22,0,0,0,109.2,253.85Z" transform="translate(-105.91 -65.91)"/><path class="g" d="M109,255.92l0,.14a.11.11,0,0,1-.13.09.14.14,0,0,1-.09-.08l0-.11a.16.16,0,0,1,.12-.23.63.63,0,0,0,.46-.46.09.09,0,0,1,.11-.05s.06,0,.06.06a.3.3,0,0,1-.1.32c0,.13-.07.19-.19.18A.14.14,0,0,0,109,255.92Z" transform="translate(-105.91 -65.91)"/><path class="g" d="M107.7,255.27a.11.11,0,0,1,.14.06.09.09,0,0,1,0,.11l-.22.22a.08.08,0,0,1-.12,0,.1.1,0,0,1,0-.09A.44.44,0,0,1,107.7,255.27Z" transform="translate(-105.91 -65.91)"/><path class="g" d="M182.86,258.56a4.21,4.21,0,0,1-.7-2.74.16.16,0,0,1,.17-.15.18.18,0,0,1,.09,0c.85.67,1.67,1.64,1.19,2.78a.43.43,0,0,1-.56.23A.42.42,0,0,1,182.86,258.56Z" transform="translate(-105.91 -65.91)"/><path class="g" d="M108,256.19a.46.46,0,0,1,0,.14.09.09,0,0,1-.12,0l-.05-.05A.27.27,0,0,1,108,256c.1-.06.13,0,.1.07l0,.14Z" transform="translate(-105.91 -65.91)"/><path class="g" d="M108,256.82c0,.27-.09.37-.37.32a.13.13,0,0,1-.1-.15.12.12,0,0,1,0-.07l.22-.19C107.87,256.64,107.94,256.67,108,256.82Z" transform="translate(-105.91 -65.91)"/><path class="g" d="M107.78,258.47a.48.48,0,0,1-.21-.36c0-.16,0-.17.11-.05l.25.33a.15.15,0,0,0,.23,0l.17-.12a.09.09,0,0,1,.11,0,.06.06,0,0,1,0,.07.65.65,0,0,1-.24.35.14.14,0,0,1-.24-.05l-.06-.1A.4.4,0,0,0,107.78,258.47Z" transform="translate(-105.91 -65.91)"/><path class="g" d="M107.38,258.58c.22.34,0,.92.68.93.08,0,.11,0,.1.12a.66.66,0,0,0,.27.69c.11.07.09.09,0,.07a.44.44,0,0,1-.31-.21,3.46,3.46,0,0,0-.86-1,.21.21,0,0,1-.09-.18v-.39a.12.12,0,0,1,.12-.12l0,0A.15.15,0,0,1,107.38,258.58Z" transform="translate(-105.91 -65.91)"/><path class="g" d="M108.94,261.93q-.1.22-.3,0a.15.15,0,0,1,0-.11l.18-.76A.13.13,0,0,1,109,261s.06,0,.08,0l.26.42a.14.14,0,0,1,0,.21l-.21.14A.3.3,0,0,0,108.94,261.93Z" transform="translate(-105.91 -65.91)"/><path class="g" d="M108,262.2c.18,0,.24.12.17.32s-.09.13-.18.06a.3.3,0,0,1-.12-.28C107.9,262.22,107.94,262.19,108,262.2Z" transform="translate(-105.91 -65.91)"/><path class="g" d="M108.45,262.89a.24.24,0,0,1,.11-.06.09.09,0,0,1,.11.06.11.11,0,0,1,0,.08l-.23.28a.09.09,0,0,1-.13,0,.09.09,0,0,1,0-.07v-.14Z" transform="translate(-105.91 -65.91)"/><path class="g" d="M187.78,265.31c-.63-.57-1.91-1.1-1.3-2.16a.21.21,0,0,1,.29-.08.13.13,0,0,1,.07.06c.46.61.9,1.21,1.31,1.79a.24.24,0,0,1,0,.14.43.43,0,0,1,0,.17.26.26,0,0,1-.34.13Z" transform="translate(-105.91 -65.91)"/><path class="g" d="M107.82,263.63l-.17,0a.17.17,0,0,1-.17-.16l0-.1c0-.12,0-.17.14-.14a.64.64,0,0,1,.55.58.24.24,0,0,0,.23.21h.13a.05.05,0,0,1,.06.05.06.06,0,0,1-.06,0h0l-.45,0c-.08,0-.12,0-.11-.12v-.2A.15.15,0,0,0,107.82,263.63Z" transform="translate(-105.91 -65.91)"/><path class="g" d="M108.73,263.61a.32.32,0,0,1,.32-.41.12.12,0,0,1,.15.11.55.55,0,0,1-.09.4.22.22,0,0,1-.3,0A.19.19,0,0,1,108.73,263.61Z" transform="translate(-105.91 -65.91)"/><path class="g" d="M108.21,265.66l-.55.31a.09.09,0,0,1-.13,0v0l0-.22a.13.13,0,0,1,.09-.16l.3-.1c.09,0,.11-.08,0-.16a.72.72,0,0,1-.16-.72.14.14,0,0,1,.17-.09h0l.63.26a.18.18,0,0,1,.09.22.17.17,0,0,1-.1.1l-.18.07a.26.26,0,0,0-.16.13A.38.38,0,0,0,108.21,265.66Z" transform="translate(-105.91 -65.91)"/><path class="g" d="M108.21,265.66a.56.56,0,0,0,.33-.06q.1,0,.09.06l-.12.69a.16.16,0,0,1-.15.13.39.39,0,0,0-.4.27c0,.11,0,.16.11.16h.26a.1.1,0,0,1,.1.1.08.08,0,0,1,0,0l0,.06,0,0-.66.11s-.06,0-.06-.06l.08-.51a.55.55,0,0,1,.12-.24A1.18,1.18,0,0,0,108.21,265.66Z" transform="translate(-105.91 -65.91)"/><path class="g" d="M191.81,286.58c-1.18-.05-.79-1.89.11-2.25a.33.33,0,0,1,.41.18s0,.06,0,.08C192.38,285,192.5,286.61,191.81,286.58Z" transform="translate(-105.91 -65.91)"/><path class="g" d="M187.91,289.5a.37.37,0,0,1-.16-.33.76.76,0,0,1,.43-.7.25.25,0,0,1,.22,0c.5.19.77,1.19.21,1.32A.91.91,0,0,1,187.91,289.5Z" transform="translate(-105.91 -65.91)"/><path class="g" d="M186.73,290.49a.22.22,0,0,1-.29.11l-.07,0a.81.81,0,0,1-.34-1.09l.06-.12a.81.81,0,0,1,1-.48l.07,0a.22.22,0,0,1,.11.29Z" transform="translate(-105.91 -65.91)"/><path class="g" d="M183.51,304c-2.19.54-3.3-2.31-.95-3.47a.35.35,0,0,1,.46.16.35.35,0,0,1,0,.37.88.88,0,0,0,.13,1.12,2.31,2.31,0,0,1,.53,1.65A.18.18,0,0,1,183.51,304Z" transform="translate(-105.91 -65.91)"/><path class="g" d="M184.08,315.87c-.52-.29-.89-1.1,0-1.31a.28.28,0,0,1,.25.05.76.76,0,0,1,.19,1.16A.27.27,0,0,1,184.08,315.87Z" transform="translate(-105.91 -65.91)"/><path class="g" d="M183.63,318.29a.21.21,0,0,1-.28,0h0a.81.81,0,0,1-.21-1.12h0l0,0a.8.8,0,0,1,1.12-.18h0l0,0a.2.2,0,0,1,0,.28Z" transform="translate(-105.91 -65.91)"/><path class="g" d="M182.68,320.92a.41.41,0,0,1,.27.53.41.41,0,0,1-.14.2l-.61.48a.32.32,0,0,1-.45-.05.43.43,0,0,1,0-.07A.76.76,0,0,1,182.68,320.92Z" transform="translate(-105.91 -65.91)"/><path class="g" d="M187.71,321.09a.07.07,0,0,1,.07-.06H188c.41,0,.72.55.69,1.19l0,.3c0,.64-.4,1.14-.81,1.11h-.22a.06.06,0,0,1-.06-.06h0Z" transform="translate(-105.91 -65.91)"/><path class="g" d="M183.64,328.48a.46.46,0,0,1-.51.39h0c-1-.14-1.79-.82-1.7-1.52h0v-.05c.09-.71,1-1.17,2-1h0a.45.45,0,0,1,.39.51h0Z" transform="translate(-105.91 -65.91)"/><path class="g" d="M182.88,362.11a.1.1,0,0,1-.11.11h0a.87.87,0,0,1-.83-.89v-.07a.87.87,0,0,1,.89-.84h0a.13.13,0,0,1,.11.12Z" transform="translate(-105.91 -65.91)"/></g><path class="g" d="M225.93,293.38q-6.56,0-10.56-2.22l3-6.38a22.38,22.38,0,0,0,9.49,2.18,13.12,13.12,0,0,0,5.62-1A4.29,4.29,0,0,0,236,283a2.38,2.38,0,0,0-.13-1.63A4.27,4.27,0,0,0,234.5,280l-6.3-4.48a5.89,5.89,0,0,1-2.49-3.64,10,10,0,0,1,0-4.25,13.77,13.77,0,0,1,5.14-8.36,16.37,16.37,0,0,1,10-2.85q7.18,0,10.43,4l-5,5.61a11,11,0,0,0-3.38-2.39,9.37,9.37,0,0,0-3.87-.82,8,8,0,0,0-4.1.91,4.05,4.05,0,0,0-1.94,2.68,3.25,3.25,0,0,0,.17,2.12,4.37,4.37,0,0,0,1.48,1.77l5.82,4.15a6.39,6.39,0,0,1,2.72,3.48,8.68,8.68,0,0,1,0,4.21,13,13,0,0,1-5.66,8.35Q233.16,293.39,225.93,293.38Z" transform="translate(-105.91 -65.91)"/><path class="g" d="M256.28,293.38q-6.55,0-10.56-2.22l3-6.38a22.31,22.31,0,0,0,9.49,2.18,13.1,13.1,0,0,0,5.61-1,4.29,4.29,0,0,0,2.5-2.92,2.32,2.32,0,0,0-.13-1.63,4.07,4.07,0,0,0-1.38-1.38l-6.3-4.48a5.84,5.84,0,0,1-2.48-3.64,9.82,9.82,0,0,1,0-4.25,13.77,13.77,0,0,1,5.14-8.36,16.38,16.38,0,0,1,10-2.85q7.17,0,10.42,4l-5,5.61a10.88,10.88,0,0,0-3.38-2.39,9.37,9.37,0,0,0-3.87-.82,8,8,0,0,0-4.09.91,4,4,0,0,0-1.95,2.68,3.25,3.25,0,0,0,.17,2.12,4.37,4.37,0,0,0,1.48,1.77l5.83,4.15a6.37,6.37,0,0,1,2.71,3.48,8.68,8.68,0,0,1,0,4.21,13,13,0,0,1-5.66,8.35Q263.52,293.39,256.28,293.38Z" transform="translate(-105.91 -65.91)"/><path class="g" d="M212.89,286.06l-17.47-7.6,2.19-5.39,23.68-7.6L219,271.08l-16.58,4.69-.17.36,12.8,4.66Z" transform="translate(-105.91 -65.91)"/><path class="g" d="M282.34,283.64l15-4.66v-.36l-14.42-4.69.31-5.61,20.17,7.6-.3,5.39-21,7.6Z" transform="translate(-105.91 -65.91)"/><path class="d" d="M30.65,164.48" transform="translate(-105.91 -65.91)"/></svg>