<?xml version="1.0" encoding="utf-8"?>
<!-- Generator: Adobe Illustrator 25.2.1, SVG Export Plug-In . SVG Version: 6.00 Build 0)  -->
<svg version="1.1" id="Camada_1" xmlns="http://www.w3.org/2000/svg" xmlns:xlink="http://www.w3.org/1999/xlink" x="0px" y="0px"
	 viewBox="0 0 64 64" style="enable-background:new 0 0 64 64;" xml:space="preserve">
<style type="text/css">
	.st0{display:none;}
	.st1{display:inline;fill:url(#SVGID_1_);}
	.st2{fill:url(#SVGID_2_);}
</style>
<g id="Camada_1_1_" class="st0">
	
		<linearGradient id="SVGID_1_" gradientUnits="userSpaceOnUse" x1="-0.8055" y1="1.0933" x2="64.3038" y2="66.4035" gradientTransform="matrix(1 0 0 -1 0 66)">
		<stop  offset="0" style="stop-color:#3F5FA3"/>
		<stop  offset="1" style="stop-color:#75B3B1"/>
	</linearGradient>
	<path class="st1" d="M49.8,33.1l12.7,12.7c0.6,0.6,0.6,1.6,0,2.2L48,62.5c-0.6,0.6-1.6,0.6-2.2,0L33.1,49.8c-0.6-0.6-1.6-0.6-2.2,0
		L18.2,62.5c-0.6,0.6-1.6,0.6-2.2,0L1.5,48c-0.6-0.6-0.6-1.6,0-2.2l12.7-12.7c0.6-0.6,0.6-1.6,0-2.2L1.5,18.2
		c-0.6-0.6-0.6-1.6,0-2.2L16,1.5c0.6-0.6,1.6-0.6,2.2,0l12.7,12.7c0.6,0.6,1.6,0.6,2.2,0L45.8,1.5c0.6-0.6,1.6-0.6,2.2,0L62.5,16
		c0.6,0.6,0.6,1.6,0,2.2L49.8,30.9C49.2,31.5,49.2,32.5,49.8,33.1z"/>
</g>
<g id="Camada_2_1_">
	
		<image style="display:none;overflow:visible;enable-background:new    ;" width="801" height="601" xlink:href="48333F40.jpeg"  transform="matrix(1.1781 0 0 1.1781 -503.3253 -300.4101)">
	</image>
	
		<linearGradient id="SVGID_2_" gradientUnits="userSpaceOnUse" x1="-0.1521" y1="2.3688" x2="63.4348" y2="66.1514" gradientTransform="matrix(1 0 0 -1 0 66)">
		<stop  offset="0" style="stop-color:#FC7021"/>
		<stop  offset="1" style="stop-color:#F1E076"/>
	</linearGradient>
	<path class="st2" d="M32,1.1C15.4,1.1,1.8,14.6,1.8,31.3C1.8,48,15.3,61.6,32,61.6c16.7,0,30.2-13.5,30.2-30.2
		C62.3,14.6,48.7,1.1,32,1.1z M32,40.5c-5.1,0-9.2-4.1-9.2-9.2s4.1-9.2,9.2-9.2s9.2,4.1,9.2,9.2C41.2,36.4,37.1,40.5,32,40.5z"/>
</g>
</svg>
