<?xml version="1.0" encoding="utf-8"?>
<!-- Generator: Adobe Illustrator 25.2.1, SVG Export Plug-In . SVG Version: 6.00 Build 0)  -->
<svg version="1.1" id="Camada_1" xmlns="http://www.w3.org/2000/svg" xmlns:xlink="http://www.w3.org/1999/xlink" x="0px" y="0px"
	 viewBox="0 0 64 64" style="enable-background:new 0 0 64 64;" xml:space="preserve">
<style type="text/css">
	.st0{fill:url(#SVGID_1_);}
</style>
<image style="display:none;overflow:visible;enable-background:new    ;" width="801" height="601" xlink:href="260B4513.jpeg"  transform="matrix(1.1781 0 0 1.1781 -348.5645 -293.9536)">
</image>
<linearGradient id="SVGID_1_" gradientUnits="userSpaceOnUse" x1="-0.8055" y1="1.0933" x2="64.3038" y2="66.4035" gradientTransform="matrix(1 0 0 -1 0 66)">
	<stop  offset="0" style="stop-color:#3068FF"/>
	<stop  offset="1" style="stop-color:#8CE8D1"/>
</linearGradient>
<path class="st0" d="M49.8,33.1l12.7,12.7c0.6,0.6,0.6,1.6,0,2.2L48,62.5c-0.6,0.6-1.6,0.6-2.2,0L33.1,49.8c-0.6-0.6-1.6-0.6-2.2,0
	L18.2,62.5c-0.6,0.6-1.6,0.6-2.2,0L1.5,48c-0.6-0.6-0.6-1.6,0-2.2l12.7-12.7c0.6-0.6,0.6-1.6,0-2.2L1.5,18.2c-0.6-0.6-0.6-1.6,0-2.2
	L16,1.5c0.6-0.6,1.6-0.6,2.2,0l12.7,12.7c0.6,0.6,1.6,0.6,2.2,0L45.8,1.5c0.6-0.6,1.6-0.6,2.2,0L62.5,16c0.6,0.6,0.6,1.6,0,2.2
	L49.8,30.9C49.2,31.5,49.2,32.5,49.8,33.1z"/>
</svg>
